<?xml version="1.0" encoding="utf-8"?>
<!-- Generator: Adobe Illustrator 27.6.0, SVG Export Plug-In . SVG Version: 6.00 Build 0)  -->
<svg version="1.1" id="a" xmlns="http://www.w3.org/2000/svg" xmlns:xlink="http://www.w3.org/1999/xlink" x="0px" y="0px"
	 viewBox="0 0 61.9 61.7" style="enable-background:new 0 0 61.9 61.7;" xml:space="preserve">
<style type="text/css">
	.st0{clip-path:url(#SVGID_00000000907410480739377770000002461022881138295459_);}
	.st1{fill:#FF0000;}
	.st2{fill:#FFFFFF;}
</style>
<g>
	<defs>
		<circle id="SVGID_1_" cx="30.8" cy="30.8" r="30.8"/>
	</defs>
	<clipPath id="SVGID_00000142869954333586039820000010953169926011457160_">
		<use xlink:href="#SVGID_1_"  style="overflow:visible;"/>
	</clipPath>
	<g style="clip-path:url(#SVGID_00000142869954333586039820000010953169926011457160_);">
		<rect x="-4.9" y="0.1" class="st1" width="71.4" height="61.6"/>
		<rect x="12.9" y="0.1" class="st2" width="35.7" height="61.6"/>
		<path class="st1" d="M16.7,30.3L15.2,31l7.5,6.1c0.3,0.2,0.5,0.7,0.3,1l-0.6,2.2c2.6-0.3,4.9-0.8,7.5-1c0.2,0,0.6,0.3,0.6,0.6
			l-0.3,7.9h1.2l-0.2-7.9c0-0.3,0.3-0.7,0.6-0.6c2.6,0.3,4.9,0.7,7.5,1l-0.7-2.2c-0.1-0.4,0-0.8,0.3-1l7.5-6.1l-1.5-0.7
			c-0.7-0.2-0.5-0.6-0.2-1.6l1.1-4.2l-4.3,0.9c-0.4,0.1-0.7-0.2-0.8-0.5L40,23l-3.4,3.9c-0.5,0.6-1.5,0.6-1.2-0.8l1.5-7.9l-2,1
			c-0.6,0.3-1.1,0.4-1.4-0.2L30.8,14l-2.7,5.1c-0.3,0.6-0.9,0.5-1.4,0.2l-2-1l1.5,7.9c0.3,1.4-0.7,1.4-1.2,0.8L21.5,23L21,25
			c-0.1,0.3-0.4,0.5-0.8,0.5l-4.4-0.9l1.1,4.2C17.2,29.6,17.4,30,16.7,30.3L16.7,30.3z"/>
	</g>
</g>
</svg>
