<?xml version="1.0" encoding="UTF-8"?><svg id="a" xmlns="http://www.w3.org/2000/svg" xmlns:xlink="http://www.w3.org/1999/xlink" viewBox="0 0 61.57 61.57"><defs><style>.c,.d{fill:none;}.e{fill:#0020bf;}.f{fill:#e60013;}.g{fill:#fff;}.d{clip-path:url(#b);}</style><clipPath id="b"><circle class="c" cx="30.78" cy="30.78" r="30.78"/></clipPath></defs><g class="d"><rect class="g" x="-15.18" y="0" width="92.35" height="61.57"/><rect class="f" x="-15.18" y="0" width="92.35" height="4.74"/><rect class="f" x="-15.18" y="9.47" width="92.35" height="4.74"/><rect class="f" x="-15.18" y="18.94" width="92.35" height="4.74"/><rect class="f" x="-15.18" y="28.42" width="92.35" height="4.74"/><rect class="f" x="-15.18" y="37.89" width="92.35" height="4.74"/><rect class="f" x="-15.18" y="47.36" width="92.35" height="4.74"/><rect class="f" x="-15.18" y="56.83" width="92.35" height="4.74"/><rect class="e" x="-15.18" y="0" width="46.79" height="33.15"/><polygon class="g" points="4.33 1.38 3.9 2.69 2.53 2.69 3.64 3.5 3.22 4.81 4.33 4 5.45 4.81 5.02 3.5 6.13 2.69 4.76 2.69 4.33 1.38"/><polygon class="g" points="12.09 1.38 11.66 2.69 10.29 2.69 11.4 3.5 10.97 4.81 12.09 4 13.2 4.81 12.78 3.5 13.89 2.69 12.51 2.69 12.09 1.38"/><polygon class="g" points="19.85 1.38 19.42 2.69 18.04 2.69 19.16 3.5 18.73 4.81 19.85 4 20.96 4.81 20.53 3.5 21.65 2.69 20.27 2.69 19.85 1.38"/><polygon class="g" points="26.91 3.5 26.49 4.81 27.6 4 28.72 4.81 28.29 3.5 29.41 2.69 28.03 2.69 27.6 1.38 27.18 2.69 25.8 2.69 26.91 3.5"/><polygon class="g" points=".45 4.71 .03 6.02 -1.35 6.02 -.24 6.83 -.66 8.14 .45 7.33 1.57 8.14 1.14 6.83 2.26 6.02 .88 6.02 .45 4.71"/><polygon class="g" points="8.21 4.71 7.78 6.02 6.41 6.02 7.52 6.83 7.1 8.14 8.21 7.33 9.32 8.14 8.9 6.83 10.01 6.02 8.64 6.02 8.21 4.71"/><polygon class="g" points="15.97 4.71 15.54 6.02 14.16 6.02 15.28 6.83 14.85 8.14 15.97 7.33 17.08 8.14 16.66 6.83 17.77 6.02 16.39 6.02 15.97 4.71"/><polygon class="g" points="23.72 4.71 23.3 6.02 21.92 6.02 23.03 6.83 22.61 8.14 23.72 7.33 24.84 8.14 24.41 6.83 25.53 6.02 24.15 6.02 23.72 4.71"/><polygon class="g" points="4.33 8.03 3.9 9.34 2.53 9.34 3.64 10.15 3.22 11.46 4.33 10.65 5.45 11.46 5.02 10.15 6.13 9.34 4.76 9.34 4.33 8.03"/><polygon class="g" points="12.09 8.03 11.66 9.34 10.29 9.34 11.4 10.15 10.97 11.46 12.09 10.65 13.2 11.46 12.78 10.15 13.89 9.34 12.51 9.34 12.09 8.03"/><polygon class="g" points="19.85 8.03 19.42 9.34 18.04 9.34 19.16 10.15 18.73 11.46 19.85 10.65 20.96 11.46 20.53 10.15 21.65 9.34 20.27 9.34 19.85 8.03"/><polygon class="g" points="27.6 8.03 27.18 9.34 25.8 9.34 26.91 10.15 26.49 11.46 27.6 10.65 28.72 11.46 28.29 10.15 29.41 9.34 28.03 9.34 27.6 8.03"/><polygon class="g" points=".45 11.36 .03 12.67 -1.35 12.67 -.24 13.48 -.66 14.79 .45 13.98 1.57 14.79 1.14 13.48 2.26 12.67 .88 12.67 .45 11.36"/><polygon class="g" points="8.21 11.36 7.78 12.67 6.41 12.67 7.52 13.48 7.1 14.79 8.21 13.98 9.32 14.79 8.9 13.48 10.01 12.67 8.64 12.67 8.21 11.36"/><polygon class="g" points="15.97 11.36 15.54 12.67 14.16 12.67 15.28 13.48 14.85 14.79 15.97 13.98 17.08 14.79 16.66 13.48 17.77 12.67 16.39 12.67 15.97 11.36"/><polygon class="g" points="23.72 11.36 23.3 12.67 21.92 12.67 23.03 13.48 22.61 14.79 23.72 13.98 24.84 14.79 24.41 13.48 25.53 12.67 24.15 12.67 23.72 11.36"/><polygon class="g" points="4.33 14.68 3.9 15.99 2.53 15.99 3.64 16.8 3.22 18.11 4.33 17.3 5.45 18.11 5.02 16.8 6.13 15.99 4.76 15.99 4.33 14.68"/><polygon class="g" points="12.09 14.68 11.66 15.99 10.29 15.99 11.4 16.8 10.97 18.11 12.09 17.3 13.2 18.11 12.78 16.8 13.89 15.99 12.51 15.99 12.09 14.68"/><polygon class="g" points="19.85 14.68 19.42 15.99 18.04 15.99 19.16 16.8 18.73 18.11 19.85 17.3 20.96 18.11 20.53 16.8 21.65 15.99 20.27 15.99 19.85 14.68"/><polygon class="g" points="27.6 14.68 27.18 15.99 25.8 15.99 26.91 16.8 26.49 18.11 27.6 17.3 28.72 18.11 28.29 16.8 29.41 15.99 28.03 15.99 27.6 14.68"/><path class="g" d="m.45,18.01l-.42,1.31h-1.38l1.12.81-.43,1.31,1.11-.81,1.12.81-.43-1.31,1.11-.81H.88l-.43-1.31Zm0,1.9H.45Z"/><path class="g" d="m8.21,18.01l-.43,1.31h-1.38l1.12.81-.43,1.31,1.11-.81,1.12.81-.43-1.31,1.11-.81h-1.38l-.42-1.31Zm0,1.9h0Z"/><path class="g" d="m15.97,18.01l-.43,1.31h-1.38l1.12.81-.43,1.31,1.11-.81,1.11.81-.42-1.31,1.11-.81h-1.38l-.43-1.31Zm0,1.9h0Z"/><path class="g" d="m23.72,18.01l-.43,1.31h-1.38l1.11.81-.42,1.31,1.11-.81,1.11.81-.42-1.31,1.11-.81h-1.38l-.43-1.31Zm0,1.9h0Z"/><path class="g" d="m4.33,21.33l-.43,1.31h-1.38l1.11.81-.42,1.31,1.11-.81,1.12.81-.43-1.31,1.11-.81h-1.38l-.43-1.31Zm0,1.9h0Z"/><path class="g" d="m12.09,21.33l-.43,1.31h-1.38l1.11.81-.43,1.31,1.12-.81,1.12.81-.43-1.31,1.12-.81h-1.38l-.43-1.31Zm0,1.9h0Z"/><path class="g" d="m19.85,21.33l-.43,1.31h-1.38l1.11.81-.43,1.31,1.12-.81,1.12.81-.43-1.31,1.11-.81h-1.38l-.43-1.31Zm0,1.9h0Z"/><path class="g" d="m27.6,21.33l-.43,1.31h-1.38l1.12.81-.43,1.31,1.12-.81,1.11.81-.42-1.31,1.11-.81h-1.38l-.43-1.31Zm0,1.9h0Z"/><polygon class="g" points=".88 25.97 .45 24.65 .03 25.97 -1.35 25.97 -.24 26.77 -.66 28.08 .45 27.28 1.57 28.08 1.14 26.77 2.26 25.97 .88 25.97"/><polygon class="g" points="8.64 25.97 8.21 24.65 7.78 25.97 6.41 25.97 7.52 26.77 7.1 28.08 8.21 27.28 9.32 28.08 8.9 26.77 10.01 25.97 8.64 25.97"/><polygon class="g" points="16.39 25.97 15.97 24.65 15.54 25.97 14.16 25.97 15.28 26.77 14.85 28.08 15.97 27.28 17.08 28.08 16.66 26.77 17.77 25.97 16.39 25.97"/><polygon class="g" points="24.15 25.97 23.72 24.65 23.3 25.97 21.92 25.97 23.03 26.77 22.61 28.08 23.72 27.28 24.84 28.08 24.41 26.77 25.53 25.97 24.15 25.97"/><polygon class="g" points="4.76 29.29 4.33 27.98 3.9 29.29 2.53 29.29 3.64 30.1 3.22 31.41 4.33 30.6 5.45 31.41 5.02 30.1 6.13 29.29 4.76 29.29"/><polygon class="g" points="12.51 29.29 12.09 27.98 11.66 29.29 10.29 29.29 11.4 30.1 10.97 31.41 12.09 30.6 13.2 31.41 12.78 30.1 13.89 29.29 12.51 29.29"/><polygon class="g" points="20.27 29.29 19.85 27.98 19.42 29.29 18.04 29.29 19.16 30.1 18.73 31.41 19.85 30.6 20.96 31.41 20.53 30.1 21.65 29.29 20.27 29.29"/><polygon class="g" points="28.03 29.29 27.6 27.98 27.18 29.29 25.8 29.29 26.91 30.1 26.49 31.41 27.6 30.6 28.72 31.41 28.29 30.1 29.41 29.29 28.03 29.29"/></g></svg>