<?xml version="1.0" encoding="UTF-8"?><svg id="a" xmlns="http://www.w3.org/2000/svg" xmlns:xlink="http://www.w3.org/1999/xlink" viewBox="0 0 61.71 61.71"><defs><style>.j,.k{fill:none;}.l{fill:#0037a6;}.m{fill:#e60026;}.n{fill:#fff;}.k{clip-path:url(#b);}</style><clipPath id="b"><circle id="c" class="j" cx="30.86" cy="30.86" r="30.86" transform="translate(-12.78 30.86) rotate(-45)"/></clipPath></defs><g class="k"><rect class="l" x="-15.43" y="0" width="92.57" height="61.72"/><rect class="n" x="8.8" y="18.16" width="7.35" height="12.7"/><polygon class="n" points="-5.91 30.85 -1.89 30.85 12.07 18.28 8.05 14.66 -5.91 27.22 -5.91 30.85"/><polygon class="m" points="-3.23 30.85 8.76 20.05 6.07 20.05 -5.91 30.85 -3.23 30.85"/><polygon class="n" points="26.83 30.85 30.85 30.85 30.85 27.23 16.9 14.66 12.89 18.28 26.83 30.85"/><polygon class="m" points="30.85 30.85 30.85 28.44 21.55 20.06 18.87 20.06 30.85 30.85"/><polygon class="n" points="30.85 0 26.83 0 12.87 12.57 16.89 16.19 30.85 3.62 30.85 0"/><polygon class="m" points="28.17 0 16.18 10.79 18.87 10.79 30.85 0 28.17 0"/><polygon class="n" points="-1.89 0 -5.91 0 -5.91 3.61 8.04 16.18 12.06 12.56 -1.89 0"/><rect class="n" x="-5.91" y="10.8" width="14.97" height="9.26"/><rect class="n" x="8.79" y="0" width="7.35" height="12.64"/><polygon class="m" points="-5.91 0 -5.91 2.41 3.39 10.79 6.07 10.79 -5.91 0"/><rect class="n" x="15.87" y="10.8" width="14.98" height="9.26"/><polygon class="m" points="14.68 12.66 14.68 0 10.26 0 10.26 12.65 -5.91 12.65 -5.91 18.2 10.26 18.2 10.26 18.21 10.27 18.21 10.27 30.86 14.68 30.86 14.68 18.21 30.85 18.21 30.85 12.66 14.68 12.66"/><polygon id="d" class="n" points="14.15 35.13 15.4 39.05 19.25 37.59 16.97 41.01 20.5 43.11 16.41 43.46 16.98 47.53 14.15 44.56 11.32 47.53 11.88 43.46 7.79 43.11 11.32 41.01 9.05 37.59 12.89 39.05 14.15 35.13"/><polygon id="e" class="n" points="47.37 42.17 47.97 44.04 49.79 43.34 48.71 44.97 50.4 45.97 48.45 46.14 48.71 48.08 47.37 46.66 46.02 48.08 46.29 46.14 44.34 45.97 46.02 44.97 44.94 43.34 46.77 44.04 47.37 42.17"/><polygon id="f" class="n" points="36.5 24.96 37.1 26.83 38.93 26.13 37.84 27.76 39.53 28.76 37.58 28.93 37.84 30.87 36.5 29.45 35.15 30.87 35.42 28.93 33.47 28.76 35.15 27.76 34.07 26.13 35.9 26.83 36.5 24.96"/><polygon id="g" class="n" points="47.37 13.19 47.97 15.05 49.79 14.36 48.71 15.99 50.4 16.99 48.45 17.16 48.71 19.09 47.37 17.68 46.02 19.09 46.29 17.16 44.34 16.99 46.02 15.99 44.94 14.36 46.77 15.05 47.37 13.19"/><polygon id="h" class="n" points="57.03 22.07 57.63 23.93 59.46 23.24 58.38 24.86 60.06 25.86 58.11 26.03 58.38 27.97 57.03 26.55 55.68 27.97 55.95 26.03 54 25.86 55.68 24.86 54.6 23.24 56.43 23.93 57.03 22.07"/><polygon id="i" class="n" points="51.72 30.79 52.19 31.95 53.44 32.04 52.48 32.85 52.78 34.06 51.72 33.4 50.65 34.06 50.95 32.85 49.99 32.04 51.24 31.95 51.72 30.79"/></g></svg>